<svg width="61" height="60" viewBox="0 0 61 60" fill="none" xmlns="http://www.w3.org/2000/svg">
<circle cx="30.4402" cy="30.169" r="29.6303" fill="#053941"/>
<path d="M27.2976 40.6444H33.5828C38.8205 40.6444 40.9155 38.5494 40.9155 33.3117V27.0265C40.9155 21.7888 38.8205 19.6937 33.5828 19.6937H27.2976C22.0599 19.6937 19.9648 21.7888 19.9648 27.0265V33.3117C19.9648 38.5494 22.0599 40.6444 27.2976 40.6444Z" stroke="white" stroke-width="1.5713" stroke-linecap="round" stroke-linejoin="round"/>
<path d="M30.4402 33.8353C32.4651 33.8353 34.1066 32.1938 34.1066 30.1689C34.1066 28.1441 32.4651 26.5026 30.4402 26.5026C28.4153 26.5026 26.7738 28.1441 26.7738 30.1689C26.7738 32.1938 28.4153 33.8353 30.4402 33.8353Z" stroke="white" stroke-width="1.5713" stroke-linecap="round" stroke-linejoin="round"/>
<path d="M36.3442 24.9314H36.3563" stroke="white" stroke-width="2.09507" stroke-linecap="round" stroke-linejoin="round"/>
</svg>
