<svg width="25" height="24" viewBox="0 0 25 24" fill="none" xmlns="http://www.w3.org/2000/svg">
<path d="M19.0333 6.86675C19.0333 7.63995 18.4065 8.26675 17.6333 8.26675C16.8601 8.26675 16.2333 7.63995 16.2333 6.86675C16.2333 6.09355 16.8601 5.46675 17.6333 5.46675C18.4065 5.46675 19.0333 6.09355 19.0333 6.86675Z" fill="black"/>
<path fill-rule="evenodd" clip-rule="evenodd" d="M12.5 16.6667C15.0773 16.6667 17.1666 14.5774 17.1666 12.0001C17.1666 9.42275 15.0773 7.33342 12.5 7.33342C9.92263 7.33342 7.83329 9.42275 7.83329 12.0001C7.83329 14.5774 9.92263 16.6667 12.5 16.6667ZM12.5 14.8001C14.0464 14.8001 15.3 13.5465 15.3 12.0001C15.3 10.4537 14.0464 9.20008 12.5 9.20008C10.9536 9.20008 9.69996 10.4537 9.69996 12.0001C9.69996 13.5465 10.9536 14.8001 12.5 14.8001Z" fill="black"/>
<path fill-rule="evenodd" clip-rule="evenodd" d="M3.16663 11.6267C3.16663 8.49045 3.16663 6.92231 3.77699 5.7244C4.31388 4.67069 5.17057 3.814 6.22428 3.27711C7.42218 2.66675 8.99033 2.66675 12.1266 2.66675H12.8733C16.0096 2.66675 17.5777 2.66675 18.7756 3.27711C19.8293 3.814 20.686 4.67069 21.2229 5.7244C21.8333 6.92231 21.8333 8.49045 21.8333 11.6267V12.3734C21.8333 15.5097 21.8333 17.0779 21.2229 18.2758C20.686 19.3295 19.8293 20.1862 18.7756 20.7231C17.5777 21.3334 16.0096 21.3334 12.8733 21.3334H12.1266C8.99033 21.3334 7.42218 21.3334 6.22428 20.7231C5.17057 20.1862 4.31388 19.3295 3.77699 18.2758C3.16663 17.0779 3.16663 15.5097 3.16663 12.3734V11.6267ZM12.1266 4.53341H12.8733C14.4722 4.53341 15.5592 4.53487 16.3994 4.60351C17.2177 4.67037 17.6362 4.79157 17.9282 4.94032C18.6307 5.29825 19.2018 5.86938 19.5597 6.57185C19.7085 6.8638 19.8297 7.28231 19.8965 8.10069C19.9652 8.94085 19.9666 10.0278 19.9666 11.6267V12.3734C19.9666 13.9724 19.9652 15.0593 19.8965 15.8995C19.8297 16.7179 19.7085 17.1364 19.5597 17.4283C19.2018 18.1308 18.6307 18.7019 17.9282 19.0598C17.6362 19.2086 17.2177 19.3298 16.3994 19.3967C15.5592 19.4653 14.4722 19.4667 12.8733 19.4667H12.1266C10.5277 19.4667 9.44073 19.4653 8.60056 19.3967C7.78219 19.3298 7.36367 19.2086 7.07173 19.0598C6.36926 18.7019 5.79813 18.1308 5.4402 17.4283C5.29145 17.1364 5.17025 16.7179 5.10339 15.8995C5.03474 15.0593 5.03329 13.9724 5.03329 12.3734V11.6267C5.03329 10.0278 5.03474 8.94085 5.10339 8.10069C5.17025 7.28231 5.29145 6.8638 5.4402 6.57185C5.79813 5.86938 6.36926 5.29825 7.07173 4.94032C7.36367 4.79157 7.78219 4.67037 8.60056 4.60351C9.44073 4.53487 10.5277 4.53341 12.1266 4.53341Z" fill="black"/>
</svg>
