<svg width="25" height="24" viewBox="0 0 25 24" fill="none" xmlns="http://www.w3.org/2000/svg">
<path d="M6.83809 14.8446C6.9553 13.8742 7.3533 13.3308 8.10332 12.7739C9.17646 12.0195 10.517 12.4462 10.517 12.4462V9.91486C10.8429 9.90653 11.1689 9.92585 11.4912 9.97259V13.2302C11.4912 13.2302 10.1511 12.8035 9.07798 13.5582C8.32837 14.1148 7.92955 14.6586 7.81275 15.629C7.80909 16.1559 7.90798 16.8447 8.36337 17.4403C8.25077 17.3826 8.13601 17.3168 8.01908 17.243C7.01593 16.5694 6.83321 15.5588 6.83809 14.8446ZM17.0262 5.23436C16.288 4.42541 16.0089 3.60866 15.9079 3.03491H16.8366C16.8366 3.03491 16.6514 4.5393 18.0009 6.01873L18.0196 6.03863C17.6559 5.80985 17.3224 5.5398 17.0262 5.23436ZM21.4999 7.52781V10.7199C21.4999 10.7199 20.3149 10.6735 19.4379 10.4504C18.2133 10.1384 17.4263 9.65977 17.4263 9.65977C17.4263 9.65977 16.8826 9.31849 16.8386 9.2947V15.8864C16.8386 16.2534 16.7381 17.17 16.4317 17.9345C16.0316 18.9346 15.4143 19.591 15.3007 19.7252C15.3007 19.7252 14.5499 20.6125 13.2253 21.2101C12.0313 21.7491 10.9829 21.7355 10.6696 21.7491C10.6696 21.7491 8.85741 21.8209 7.22674 20.7612C6.87411 20.5276 6.54496 20.263 6.24353 19.9709L6.25167 19.9768C7.88275 21.0365 9.69452 20.9648 9.69452 20.9648C10.0083 20.9511 11.0566 20.9648 12.2502 20.4257C13.5736 19.8282 14.3257 18.9408 14.3257 18.9408C14.438 18.8066 15.0582 18.1502 15.4566 17.1498C15.7622 16.3857 15.8636 15.4687 15.8636 15.1016V8.51071C15.9075 8.53489 16.4508 8.87618 16.4508 8.87618C16.4508 8.87618 17.2383 9.35515 18.4628 9.6668C19.3402 9.8899 20.5248 9.93631 20.5248 9.93631V7.43498C20.9302 7.52586 21.2757 7.55043 21.4999 7.52781Z" fill="black"/>
<path d="M20.5253 7.43497V9.93553C20.5253 9.93553 19.3406 9.88912 18.4632 9.66601C17.2387 9.35398 16.4512 8.8754 16.4512 8.8754C16.4512 8.8754 15.908 8.53411 15.864 8.50993V15.1024C15.864 15.4694 15.7635 16.3864 15.457 17.1505C15.057 18.151 14.4397 18.8074 14.3261 18.9416C14.3261 18.9416 13.5749 19.8289 12.2506 20.4265C11.057 20.9655 10.0087 20.9519 9.69495 20.9655C9.69495 20.9655 7.88318 21.0373 6.2521 19.9776L6.24396 19.9717C6.07175 19.805 5.90965 19.6289 5.75846 19.4444C5.23796 18.8098 4.91891 18.0593 4.83874 17.8452C4.8386 17.8443 4.8386 17.8434 4.83874 17.8425C4.70973 17.4704 4.4387 16.5768 4.47573 15.7113C4.54125 14.1843 5.07844 13.247 5.22046 13.0122C5.59661 12.3719 6.08584 11.799 6.66638 11.319C7.17867 10.9048 7.75933 10.5753 8.38455 10.3439C9.06043 10.0722 9.78418 9.92661 10.517 9.91486V12.4462C10.517 12.4462 9.17649 12.0211 8.10375 12.7739C7.35373 13.3308 6.95573 13.8742 6.83852 14.8446C6.83364 15.5588 7.01636 16.5694 8.0187 17.2434C8.13563 17.3175 8.25039 17.3833 8.36298 17.4407C8.53809 17.6683 8.75122 17.8667 8.99376 18.0277C9.9729 18.6475 10.7933 18.6908 11.8425 18.2883C12.542 18.0192 13.0686 17.4126 13.3128 16.7406C13.4662 16.3209 13.4642 15.8985 13.4642 15.4616V3.03491H15.9059C16.0068 3.60866 16.286 4.42541 17.0242 5.23436C17.3204 5.5398 17.6539 5.80985 18.0176 6.03862C18.1251 6.14979 18.6744 6.69936 19.3797 7.03674C19.7444 7.21114 20.1288 7.34476 20.5253 7.43497Z" fill="black"/>
<path d="M3.86694 17.0676V17.0696L3.92753 17.2338C3.92057 17.2147 3.89806 17.1566 3.86694 17.0676Z" fill="black"/>
<path d="M8.38461 10.3437C7.75939 10.5751 7.17873 10.9047 6.66644 11.3188C6.08572 11.7999 5.59661 12.374 5.22093 13.0155C5.07891 13.2495 4.54172 14.1876 4.4762 15.7146C4.43917 16.5801 4.7102 17.4737 4.83921 17.8458C4.83907 17.8467 4.83907 17.8476 4.83921 17.8485C4.9206 18.0607 5.23843 18.8112 5.75893 19.4477C5.91012 19.6322 6.07222 19.8083 6.24443 19.975C5.69268 19.6093 5.2006 19.1671 4.78427 18.6629C4.26825 18.0338 3.95001 17.2912 3.86699 17.072C3.86689 17.0704 3.86689 17.0688 3.86699 17.0673V17.0645C3.73758 16.6928 3.46573 15.7989 3.50358 14.9322C3.5691 13.4052 4.10628 12.4679 4.24831 12.2331C4.62388 11.5915 5.113 11.0174 5.69382 10.5364C6.206 10.1221 6.78669 9.79254 7.41199 9.56131C7.80202 9.40621 8.20833 9.29179 8.6239 9.22002C9.25019 9.11524 9.88984 9.10616 10.5191 9.19311V9.91469C9.7856 9.92619 9.06113 10.0718 8.38461 10.3437Z" fill="black"/>
<path d="M15.908 3.03476H13.4662V15.4619C13.4662 15.8987 13.4662 16.32 13.3148 16.7408C13.0682 17.4125 12.5437 18.019 11.8445 18.2881C10.795 18.6922 9.97454 18.6474 8.99581 18.0276C8.75285 17.8673 8.53917 17.6696 8.3634 17.4425C9.19726 17.8688 9.94361 17.8614 10.8682 17.5057C11.567 17.2366 12.0923 16.6301 12.3381 15.958C12.492 15.5383 12.4899 15.1159 12.4899 14.6795V2.25H15.8616C15.8616 2.25 15.8237 2.55891 15.908 3.03476ZM20.5253 6.74328V7.43483C20.1295 7.34447 19.7458 7.21085 19.3817 7.0366C18.6765 6.69921 18.1271 6.14964 18.0197 6.03848C18.1443 6.11693 18.2737 6.1883 18.4071 6.25222C19.2645 6.66255 20.109 6.78502 20.5253 6.74328Z" fill="black"/>
</svg>
